PathFileType	4	(X/Y/Z)	Walk3.trc
DataRate	CameraRate	NumFrames	NumMarkers	Units	OrigDataRate	OrigDataStartFrame	OrigNumFrames
200.000000	200.000000	6	61	mm	200.000000	267	395
Frame#	Times		LFHD		RFHD		CLAV		STRN		LASI		RASI		RACR1		RUA1		RFA1		RWRU		RCAR		LACR1		LUA1		LFA1		LWRU		LCAR		RTH3		RMFC		RTB1		RTB3		RTB4		RMT5		LTH1		LTH3		LTH2		LTH4		LLFC		LTB1		LTB2		LTB4		RTH2		RMT1		RTH4		RMMAL		RLFC		RTH1		RTB2		LBHD		RWRR		LElbow		LWRR		RLMAL		RToe		RCAL		RElbow		LPSI		RBHD		T10		RBack		RPSI		LTB3		LMFC		LLMAL		RElbowM		LElbowM		LCAL		LMT5		LToe		C7		LMT1		LMMAL
			X1	Y1	Z1	X2	Y2	Z2	X3	Y3	Z3	X4	Y4	Z4	X5	Y5	Z5	X6	Y6	Z6	X7	Y7	Z7	X8	Y8	Z8	X9	Y9	Z9	X10	Y10	Z10	X11	Y11	Z11	X12	Y12	Z12	X13	Y13	Z13	X14	Y14	Z14	X15	Y15	Z15	X16	Y16	Z16	X17	Y17	Z17	X18	Y18	Z18	X19	Y19	Z19	X20	Y20	Z20	X21	Y21	Z21	X22	Y22	Z22	X23	Y23	Z23	X24	Y24	Z24	X25	Y25	Z25	X26	Y26	Z26	X27	Y27	Z27	X28	Y28	Z28	X29	Y29	Z29	X30	Y30	Z30	X31	Y31	Z31	X32	Y32	Z32	X33	Y33	Z33	X34	Y34	Z34	X35	Y35	Z35	X36	Y36	Z36	X37	Y37	Z37	X38	Y38	Z38	X39	Y39	Z39	X40	Y40	Z40	X41	Y41	Z41	X42	Y42	Z42	X43	Y43	Z43	X44	Y44	Z44	X45	Y45	Z45	X46	Y46	Z46	X47	Y47	Z47	X48	Y48	Z48	X49	Y49	Z49	X50	Y50	Z50	X51	Y51	Z51	X52	Y52	Z52	X53	Y53	Z53	X54	Y54	Z54	X55	Y55	Z55	X56	Y56	Z56	X57	Y57	Z57	X58	Y58	Z58	X59	Y59	Z59	X60	Y60	Z60	X61	Y61	Z61

267	1.335	432.06	1596.9	-27.144	425.12	1595.3	72.289	383.61	1319.1	13.577	404.26	1184.8	16.362	348.89	908.49	-84.961	364.19	931.61	161.14	320.15	1360.7	178.74	306.38	1194.2	240.71	344.6	911.84	313.91	413.4	805.43	289.35	407.31	737.66	338.39	306.85	1368.3	-136.33	284.26	1194.9	-196.46	289.62	903.73	-242.85	353.41	794.98	-231.14	328.84	727.67	-262.26	312.36	591.85	199.19	287.2	440.53	39.497	332.82	334.93	126.81	297.15	167	100.96	316.08	249.89	115.41	328.93	24.066	124.04	325.58	738.66	-140.42	371.08	575.06	-111.22	401.81	675.95	-108.98	347.27	656.38	-126.56	391.64	445.05	-92.839	362.34	344.03	-27.825	285.13	299.71	-85.266	294.32	290.16	-25.823	366.97	681.86	202.18	361.85	33.273	37.202	310.63	673.42	220.01	240.41	87.814	32.36	320.61	443.5	164.03	310.69	757.61	243.7	272.12	253.61	158.12	291.34	1532.9	-60.643	354.69	791.65	322.83	259.12	1039.1	-215.42	284.35	787.23	-229.89	228.04	64.821	112.27	416.09	26.695	68.959	174.75	42.993	68.633	289.58	1030.9	283.43	180.88	968.97	-6.2646	283.87	1536.7	82.06	196.15	1213.7	26.256	199.1	1299.6	93.392	189.34	973.17	93.943	231.89	233.75	-22.24	379.67	439.18	44.575	118.8	189.07	-72.112	265.45	1021.6	207.1	250.57	1020.6	-142.38	56.133	202.45	-31.107	171.87	87.178	-74.357	240.29	41.753	-22.996	275.87	1422.7	13.97	196.74	74.781	1.4662	137.42	194.53	10.018
268	1.34	440.34	1597.4	-27.181	433.37	1596	72.25	391.47	1320.1	13.849	412.27	1185.9	16.538	357.01	909.75	-84.819	372.18	931.79	161.2	328.13	1361.9	178.93	315	1195.4	240.88	355.93	913.25	313.02	426.27	807.94	287.75	421.29	739.88	336.5	314.25	1368.9	-136.15	290.73	1195.3	-195.65	290.93	903.95	-241.05	351.97	793.45	-230.06	325.06	726.58	-260.53	317.32	592	198.91	287.99	440.7	39.145	333.8	335.11	126.6	297.67	167.29	100.78	316.83	250.11	115.2	329.02	24.13	123.8	334.75	740.14	-140.6	382.61	577.28	-111.06	411.98	678.59	-109.32	357.67	658.17	-126.56	405.28	447.43	-92.275	378.61	345.78	-27.138	302.58	299.23	-84.392	312.13	290.02	-24.949	372.92	681.4	200.65	362.1	33.245	37.084	316.93	673.56	219.57	240.9	88.265	32.079	322.41	443.61	163.8	318.39	757.81	243.06	272.85	254	157.89	299.42	1533.7	-60.614	367.88	793.22	321.37	264.22	1039.7	-213.51	282.74	787.56	-227.86	228.2	65.37	111.92	416.37	26.579	69.059	174.99	43.751	68.226	299.16	1031.8	283.26	188.97	969.91	-5.8737	291.96	1537.8	82.076	204.15	1214.3	26.963	207.08	1300.4	93.931	197.43	973.95	94.384	251.3	231.92	-21.173	393.76	441.88	45.067	139.45	183.94	-70.791	274.83	1022.8	206.92	256	1021.7	-140.3	76.402	195.35	-29.626	195.68	83.974	-73.363	265.87	40.798	-22.254	283.66	1423.5	14.124	221.32	72.305	2.3652	158.13	189.98	11.332
269	1.345	448.6	1597.8	-27.241	441.6	1596.6	72.187	399.35	1320.9	14.149	420.29	1187	16.788	365.14	910.89	-84.687	380.11	931.9	161.27	336.12	1363.1	179.14	323.62	1196.4	241.08	367.26	914.6	312.13	439.12	810.42	286.11	435.27	742.06	334.58	321.7	1369.3	-135.96	297.24	1195.6	-194.82	292.26	904.24	-239.24	350.54	792.09	-228.95	321.34	725.73	-258.77	322.3	592.12	198.62	288.82	440.92	38.819	334.78	335.33	126.42	298.21	167.63	100.62	317.6	250.37	115.02	329.1	24.195	123.54	343.89	741.53	-140.82	394.01	579.4	-110.94	422.07	681.13	-109.68	367.97	659.87	-126.6	418.73	449.72	-91.742	394.75	347.47	-26.486	320.03	298.64	-83.572	329.93	289.81	-24.12	378.86	680.89	199.07	362.36	33.216	36.969	323.27	673.65	219.11	241.42	88.764	31.782	324.19	443.74	163.58	326.12	757.95	242.41	273.57	254.43	157.66	307.51	1534.5	-60.597	381.1	794.74	319.89	269.29	1040.3	-211.62	281.21	788.02	-225.79	228.36	65.965	111.54	416.64	26.459	69.162	175.25	44.566	67.773	308.75	1032.6	283.1	197.06	970.77	-5.5147	300.04	1538.8	82.075	212.16	1214.9	27.66	215.07	1301.1	94.476	205.49	974.65	94.788	270.83	229.99	-20.167	407.55	444.51	45.474	160.37	178.62	-69.54	284.22	1023.8	206.76	261.38	1022.6	-138.28	97.009	188.02	-28.217	219.73	80.703	-72.432	291.63	39.854	-21.594	291.47	1424.1	14.295	246.13	69.818	3.2021	179.06	185.25	12.562
270	1.35	456.84	1598.2	-27.322	449.81	1597.1	72.103	407.26	1321.7	14.473	428.31	1188	17.109	373.27	911.92	-84.562	388	931.94	161.36	344.11	1364.1	179.37	332.23	1197.4	241.29	378.6	915.86	311.24	451.94	812.84	284.44	449.24	744.22	332.62	329.18	1369.7	-135.74	303.78	1195.9	-193.96	293.62	904.59	-237.43	349.13	790.91	-227.83	317.69	725.11	-256.98	327.26	592.22	198.31	289.71	441.21	38.525	335.79	335.58	126.29	298.77	168	100.47	318.38	250.68	114.87	329.16	24.26	123.27	353.01	742.82	-141.06	405.26	581.43	-110.83	432.06	683.53	-110.06	378.19	661.46	-126.65	431.96	451.9	-91.244	410.76	349.1	-25.873	337.49	297.95	-82.81	347.72	289.52	-23.341	384.78	680.34	197.45	362.62	33.186	36.856	329.6	673.71	218.64	241.98	89.309	31.471	325.97	443.9	163.38	333.86	758.01	241.78	274.28	254.9	157.44	315.61	1535.1	-60.592	394.33	796.23	318.4	274.32	1040.8	-209.76	279.76	788.62	-223.7	228.5	66.607	111.14	416.91	26.336	69.266	175.52	45.439	67.275	318.33	1033.3	282.94	205.14	971.53	-5.1892	308.11	1539.7	82.06	220.17	1215.4	28.341	223.07	1301.8	95.023	213.51	975.25	95.153	290.48	227.97	-19.226	421.04	447.04	45.801	181.57	173.14	-68.362	293.61	1024.8	206.61	266.72	1023.6	-136.3	117.97	180.48	-26.881	244.04	77.395	-71.565	317.57	38.95	-21.011	299.32	1424.7	14.482	271.16	67.352	3.9791	200.24	180.38	13.709
271	1.355	465.08	1598.4	-27.418	458.01	1597.6	72.001	415.18	1322.3	14.818	436.35	1188.8	17.494	381.41	912.82	-84.44	395.84	931.92	161.46	352.12	1365	179.62	340.85	1198.2	241.53	389.93	917.04	310.35	464.73	815.21	282.75	463.2	746.35	330.63	336.72	1370	-135.5	310.36	1196.1	-193.09	295.02	905.01	-235.61	347.75	789.89	-226.68	314.14	724.72	-255.17	332.2	592.29	197.98	290.68	441.59	38.268	336.82	335.86	126.2	299.34	168.41	100.34	319.19	251.01	114.75	329.22	24.326	123	362.09	743.99	-141.31	416.37	583.34	-110.72	441.95	685.78	-110.46	388.31	662.95	-126.73	444.97	453.96	-90.781	426.63	350.68	-25.305	354.94	297.16	-82.109	365.5	289.17	-22.615	390.67	679.76	195.84	362.89	33.154	36.747	335.9	673.73	218.17	242.57	89.9	31.146	327.75	444.09	163.21	341.57	758.02	241.16	274.99	255.41	157.22	323.71	1535.6	-60.596	407.56	797.67	316.9	279.3	1041.3	-207.93	278.41	789.35	-221.57	228.64	67.296	110.71	417.17	26.21	69.367	175.8	46.366	66.733	327.91	1033.8	282.8	213.21	972.19	-4.8988	316.18	1540.5	82.033	228.2	1215.8	29.002	231.08	1302.3	95.567	221.5	975.76	95.476	310.25	225.88	-18.354	434.24	449.45	46.049	203.05	167.54	-67.26	303	1025.6	206.48	272.03	1024.4	-134.37	139.28	172.77	-25.617	268.6	74.083	-70.761	343.67	38.117	-20.5	307.2	1425.2	14.685	296.41	64.939	4.6971	221.66	175.41	14.772
272	1.36	473.3	1598.6	-27.527	466.18	1598	71.886	423.14	1322.9	15.182	444.39	1189.5	17.936	389.58	913.6	-84.319	403.64	931.84	161.59	360.13	1365.8	179.89	349.47	1199	241.77	401.28	918.14	309.47	477.49	817.52	281.03	477.14	748.44	328.62	344.32	1370.2	-135.24	316.97	1196.2	-192.2	296.47	905.49	-233.79	346.42	789.02	-225.5	310.7	724.54	-253.34	337.09	592.36	197.64	291.75	442.05	38.05	337.88	336.17	126.15	299.94	168.86	100.23	320.02	251.38	114.67	329.26	24.39	122.71	371.15	745.06	-141.57	427.33	585.13	-110.62	451.76	687.88	-110.86	398.34	664.33	-126.82	457.77	455.89	-90.356	442.37	352.19	-24.786	372.39	296.29	-81.471	383.27	288.77	-21.946	396.5	679.13	194.26	363.16	33.12	36.643	342.15	673.74	217.7	243.2	90.535	30.81	329.54	444.3	163.06	349.23	757.96	240.58	275.69	255.96	157.01	331.82	1535.9	-60.608	420.8	799.06	315.4	284.25	1041.8	-206.12	277.16	790.18	-219.41	228.78	68.03	110.27	417.43	26.083	69.465	176.09	47.347	66.15	337.48	1034.3	282.66	221.28	972.75	-4.6457	324.25	1541.2	81.997	236.23	1216.2	29.638	239.11	1302.8	96.105	229.46	976.18	95.757	330.13	223.75	-17.555	447.14	451.72	46.224	224.82	161.85	-66.232	312.39	1026.3	206.37	277.29	1025.2	-132.49	160.96	164.94	-24.425	293.42	70.801	-70.022	369.92	37.387	-20.06	315.11	1425.5	14.904	321.88	62.611	5.3554	243.33	170.36	15.753
